<svg xmlns="http://www.w3.org/2000/svg">

  <symbol id="facebook-icon" width="30" height="30" viewBox="0 0 30 30">
    <path fill="#444" fill-opacity=".2" fill-rule="evenodd"
          d="M18.636 10.324h-1.318c-1.034 0-1.234.492-1.234 1.212v1.589h2.465l-.321 2.49h-2.144V22h-2.57v-6.386h-2.149v-2.49h2.15V11.29c0-2.13 1.3-3.29 3.2-3.29.91 0 1.692.067 1.92.098v2.226zM15 1C7.269 1 1 7.268 1 15s6.269 14 14 14c7.732 0 14-6.268 14-14S22.732 1 15 1z"/>
  </symbol>

  <symbol id="instagram-icon" width="30" height="30" viewBox="0 0 30 30">
    <g fill="#444" fill-opacity=".2" fill-rule="evenodd">
      <path d="M14.738 17.702a2.69 2.69 0 0 0 2.692-2.686 2.69 2.69 0 0 0-2.692-2.685 2.69 2.69 0 0 0-2.693 2.685 2.69 2.69 0 0 0 2.693 2.686M17.838 12.265h1.893a.392.392 0 0 0 .392-.39v-1.89a.392.392 0 0 0-.392-.39h-1.893a.392.392 0 0 0-.392.39v1.89c0 .215.176.39.392.39"/>
      <path d="M22 20.34c0 .917-.745 1.66-1.664 1.66H9.664A1.663 1.663 0 0 1 8 20.34V9.66C8 8.743 8.745 8 9.664 8h10.672C21.256 8 22 8.743 22 9.66v10.68zM15 1C7.268 1 1 7.268 1 15s6.268 14 14 14 14-6.268 14-14S22.732 1 15 1z"/>
      <path d="M18.997 15.016a4.259 4.259 0 0 1-8.518 0c0-.388.053-.765.152-1.123H9.32v6.088c0 .216.175.391.39.391h10.052a.391.391 0 0 0 .392-.391v-6.088h-1.31c.1.358.152.735.152 1.123"/>
    </g>
  </symbol>

  <symbol id="pinterest-icon" width="30" height="30" viewBox="0 0 30 30">
    <path fill="#DADADA" fill-rule="evenodd"
          d="M16.08 18.118c-.868 0-1.685-.47-1.965-1.003 0 0-.467 1.853-.565 2.211-.348 1.264-1.373 2.528-1.452 2.631-.056.073-.178.05-.191-.045-.022-.161-.284-1.756.024-3.056l1.035-4.382s-.257-.514-.257-1.273c0-1.191.69-2.081 1.55-2.081.732 0 1.085.55 1.085 1.207 0 .735-.468 1.835-.71 2.854-.202.853.428 1.548 1.27 1.548 1.522 0 2.549-1.956 2.549-4.275 0-1.762-1.187-3.082-3.346-3.082-2.439 0-3.96 1.82-3.96 3.852 0 .7.208 1.194.532 1.577.148.176.17.247.115.448-.04.149-.127.504-.165.646-.053.203-.217.276-.402.2-1.123-.458-1.647-1.689-1.647-3.071C9.58 10.739 11.507 8 15.327 8c3.072 0 5.092 2.221 5.092 4.607 0 3.155-1.755 5.51-4.34 5.51M15 1C7.268 1 1 7.268 1 15s6.268 14 14 14 14-6.268 14-14S22.732 1 15 1"/>
  </symbol>

  <symbol id="mail-icon" width="30" height="30" viewBox="0 0 30 30">
    <g fill="none" fill-rule="evenodd" transform="translate(1 1)">
      <rect width="28" height="28" fill="#444" fill-opacity=".2" rx="14"/>
      <path fill="#FFF" fill-rule="nonzero"
            d="M19.749 8.615H8.251c-.987 0-1.79.771-1.79 1.719v8.014c0 .948.803 1.719 1.79 1.719h11.498c.987 0 1.79-.771 1.79-1.719v-8.014c0-.948-.803-1.719-1.79-1.719zm0 9.934H8.251c-.145 0-.272-.094-.272-.2v-6.955l5.2 4.39c.107.09.242.14.382.14h.878c.14 0 .275-.05.382-.14l5.2-4.39v6.954c0 .107-.127.201-.272.201zM14 14.417l-5.058-4.284h10.116L14 14.417z"/>
    </g>
  </symbol>

  <symbol id="cart-icon" width="35" height="35" viewBox="0 0 35 35">
    <g fill="#000" fill-rule="nonzero">
      <path d="M13.663 25.442c-1.684.011-3.04 1.452-3.033 3.22.007 1.767 1.376 3.195 3.06 3.191 1.683-.004 3.046-1.438 3.046-3.206 0-.853-.324-1.672-.901-2.274a2.98 2.98 0 0 0-2.172-.931zm0 4.274c-.563 0-1.018-.478-1.018-1.069 0-.59.455-1.068 1.018-1.068.562 0 1.017.478 1.017 1.068 0 .59-.455 1.07-1.017 1.07zM21.805 25.442c-1.684.011-3.04 1.452-3.033 3.22.007 1.767 1.376 3.195 3.06 3.191 1.683-.004 3.046-1.438 3.046-3.206 0-.853-.324-1.672-.901-2.274a2.98 2.98 0 0 0-2.172-.931zm0 4.274c-.562 0-1.018-.478-1.018-1.069 0-.59.456-1.068 1.018-1.068s1.017.478 1.017 1.068c0 .59-.455 1.07-1.017 1.07zM7.882 7.275l-.57-3.206H3.383v2.137h2.24l3.195 18.039 17.188.184v-2.322H10.508l-.347-2.009 17.205.045h1.36l2.38-12.868H7.883zM27.28 17.96H9.775L8.35 9.411h20.355l-1.425 8.55z"/>
    </g>
  </symbol>

</svg>