<svg xmlns="http://www.w3.org/2000/svg">

  <symbol id="lazlo-logo" width="481px" height="117px" viewBox="0 0 481 117" version="1.1"
          xmlns="http://www.w3.org/2000/svg" xmlns:xlink="http://www.w3.org/1999/xlink">
    <title>lazlo_logotipo</title>
    <desc>Created with Sketch.</desc>
    <defs></defs>
    <g id="Symbols" stroke="none" stroke-width="1" fill="none" fill-rule="evenodd">
      <g id="lazlo_logotipo" fill="#010203">
        <path d="M64,97.5660377 L64,112 L5,112 L5,10 L21.0657277,10 L21.0657277,97.5660377 L64,97.5660377 Z M141.27907,112 L132.488372,90.0760309 L95.6511628,90.0760309 L86.8604651,112 L69,112 L114.069767,5 L159,112 L141.27907,112 Z M101,76 L126,76 L113.5,45 L101,76 Z M249.605442,112 L169,112 L222.132653,25.9460916 L180.57483,25.9460916 L180.57483,10 L251,10 L197.867347,96.0539084 L249.605442,96.0539084 L249.605442,112 Z M330,97.5660377 L330,112 L271,112 L271,10 L287.065728,10 L287.065728,97.5660377 L330,97.5660377 Z M389.5,112 C382.559299,112 375.757412,110.625337 369.510782,108.013477 C363.264151,105.401617 357.850404,101.690027 353.130728,97.0161725 C348.411051,92.3423181 344.663073,86.9811321 342.025606,80.7951482 C339.38814,74.6091644 338,67.8733154 338,61 C338,54.1266846 339.38814,47.3908356 342.025606,41.0673854 C344.663073,35.0188679 348.411051,29.6576819 353.130728,24.8463612 C357.850404,20.1725067 363.264151,16.5983827 369.510782,13.9865229 C375.757412,11.3746631 382.559299,10 389.5,10 C396.440701,10 403.242588,11.3746631 409.628032,13.9865229 C415.735849,16.5983827 421.149596,20.1725067 426.008086,24.8463612 C430.727763,29.6576819 434.336927,35.0188679 436.974394,41.0673854 C439.61186,47.3908356 441,54.1266846 441,61 C441,67.8733154 439.61186,74.6091644 436.974394,80.7951482 C434.336927,86.9811321 430.727763,92.3423181 426.008086,97.0161725 C421.149596,101.690027 415.735849,105.401617 409.628032,108.013477 C403.242588,110.625337 396.440701,112 389.5,112 Z M390.5,26 C381.033333,26 372.123529,29.7058824 365.441176,36.2941176 C358.758824,42.8823529 355,51.6666667 355,61 C355,70.3333333 358.758824,79.1176471 365.441176,85.7058824 C372.123529,92.2941176 381.033333,96 390.5,96 C399.966667,96 408.876471,92.2941176 415.558824,85.7058824 C422.241176,79.1176471 426,70.3333333 426,61 C426,51.6666667 422.241176,42.8823529 415.558824,36.2941176 C408.876471,29.7058824 399.966667,26 390.5,26 Z M476,102.5 C476,107.792857 471.657143,112 466.5,112 C461.207143,112 457,107.792857 457,102.5 C457,97.3428571 461.207143,93 466.5,93 C471.657143,93 476,97.3428571 476,102.5 Z"
              id="LAZLO."></path>
      </g>
    </g>
  </symbol>

  <symbol id="facebook-icon" width="30" height="30" viewBox="0 0 30 30">
    <path fill="#444" fill-opacity=".2" fill-rule="evenodd"
          d="M18.636 10.324h-1.318c-1.034 0-1.234.492-1.234 1.212v1.589h2.465l-.321 2.49h-2.144V22h-2.57v-6.386h-2.149v-2.49h2.15V11.29c0-2.13 1.3-3.29 3.2-3.29.91 0 1.692.067 1.92.098v2.226zM15 1C7.269 1 1 7.268 1 15s6.269 14 14 14c7.732 0 14-6.268 14-14S22.732 1 15 1z"/>
  </symbol>

  <symbol id="facebook-icon-yellow" width="30" height="30" viewBox="0 0 30 30">
    <path fill="#FED604" fill-rule="evenodd"
          d="M18.759 10.324h-1.327c-1.04 0-1.242.492-1.242 1.212v1.589h2.482l-.324 2.49H16.19V22h-2.588v-6.386h-2.164v-2.49h2.164V11.29c0-2.13 1.31-3.29 3.223-3.29.916 0 1.704.067 1.934.098v2.226zM15.098 1C7.312 1 1 7.268 1 15s6.312 14 14.098 14c7.786 0 14.098-6.268 14.098-14S22.884 1 15.098 1z"/>
  </symbol>

  <symbol id="instagram-icon" width="30" height="30" viewBox="0 0 30 30">
    <g fill="#444" fill-opacity=".2" fill-rule="evenodd">
      <path d="M14.738 17.702a2.69 2.69 0 0 0 2.692-2.686 2.69 2.69 0 0 0-2.692-2.685 2.69 2.69 0 0 0-2.693 2.685 2.69 2.69 0 0 0 2.693 2.686M17.838 12.265h1.893a.392.392 0 0 0 .392-.39v-1.89a.392.392 0 0 0-.392-.39h-1.893a.392.392 0 0 0-.392.39v1.89c0 .215.176.39.392.39"/>
      <path d="M22 20.34c0 .917-.745 1.66-1.664 1.66H9.664A1.663 1.663 0 0 1 8 20.34V9.66C8 8.743 8.745 8 9.664 8h10.672C21.256 8 22 8.743 22 9.66v10.68zM15 1C7.268 1 1 7.268 1 15s6.268 14 14 14 14-6.268 14-14S22.732 1 15 1z"/>
      <path d="M18.997 15.016a4.259 4.259 0 0 1-8.518 0c0-.388.053-.765.152-1.123H9.32v6.088c0 .216.175.391.39.391h10.052a.391.391 0 0 0 .392-.391v-6.088h-1.31c.1.358.152.735.152 1.123"/>
    </g>
  </symbol>

  <symbol id="instagram-icon-yellow" width="30" height="30" viewBox="0 0 30 30">
    <g fill="#FED604" fill-rule="evenodd">
      <path d="M14.738 17.702a2.69 2.69 0 0 0 2.692-2.686 2.69 2.69 0 0 0-2.692-2.685 2.69 2.69 0 0 0-2.693 2.685 2.69 2.69 0 0 0 2.693 2.686M17.838 12.265h1.893a.392.392 0 0 0 .392-.39v-1.89a.392.392 0 0 0-.392-.39h-1.893a.392.392 0 0 0-.392.39v1.89c0 .215.176.39.392.39"/>
      <path d="M22 20.34c0 .916-.745 1.66-1.664 1.66H9.664A1.663 1.663 0 0 1 8 20.34V9.66C8 8.743 8.745 8 9.664 8h10.672C21.256 8 22 8.743 22 9.66v10.68zM15 1C7.268 1 1 7.268 1 15s6.268 14 14 14 14-6.268 14-14S22.732 1 15 1z"/>
      <path d="M18.997 15.016a4.259 4.259 0 0 1-8.518 0c0-.388.053-.765.152-1.123H9.32v6.088c0 .216.175.391.39.391h10.052a.391.391 0 0 0 .392-.391v-6.088h-1.31c.1.358.152.735.152 1.123"/>
    </g>
  </symbol>

  <symbol id="pinterest-icon" width="30" height="30" viewBox="0 0 30 30">
    <path fill="#DADADA" fill-rule="evenodd"
          d="M16.08 18.118c-.868 0-1.685-.47-1.965-1.003 0 0-.467 1.853-.565 2.211-.348 1.264-1.373 2.528-1.452 2.631-.056.073-.178.05-.191-.045-.022-.161-.284-1.756.024-3.056l1.035-4.382s-.257-.514-.257-1.273c0-1.191.69-2.081 1.55-2.081.732 0 1.085.55 1.085 1.207 0 .735-.468 1.835-.71 2.854-.202.853.428 1.548 1.27 1.548 1.522 0 2.549-1.956 2.549-4.275 0-1.762-1.187-3.082-3.346-3.082-2.439 0-3.96 1.82-3.96 3.852 0 .7.208 1.194.532 1.577.148.176.17.247.115.448-.04.149-.127.504-.165.646-.053.203-.217.276-.402.2-1.123-.458-1.647-1.689-1.647-3.071C9.58 10.739 11.507 8 15.327 8c3.072 0 5.092 2.221 5.092 4.607 0 3.155-1.755 5.51-4.34 5.51M15 1C7.268 1 1 7.268 1 15s6.268 14 14 14 14-6.268 14-14S22.732 1 15 1"/>
  </symbol>

  <symbol id="pinterest-icon-yellow" width="30" height="30" viewBox="0 0 30 30">
    <path fill="#FED604" fill-rule="evenodd"
          d="M15.88 18.118c-.868 0-1.685-.47-1.965-1.003 0 0-.467 1.853-.565 2.211-.348 1.264-1.373 2.528-1.452 2.631-.055.073-.178.05-.191-.045-.022-.161-.284-1.756.024-3.057l1.035-4.382s-.257-.513-.257-1.272c0-1.192.69-2.082 1.55-2.082.732 0 1.085.55 1.085 1.208 0 .735-.468 1.835-.71 2.853-.202.853.428 1.549 1.27 1.549 1.522 0 2.549-1.956 2.549-4.275 0-1.763-1.187-3.082-3.346-3.082-2.439 0-3.96 1.82-3.96 3.852 0 .7.208 1.194.532 1.576.148.176.17.247.115.448-.04.15-.127.505-.164.646-.054.204-.218.277-.403.201-1.123-.458-1.647-1.69-1.647-3.072C9.38 10.74 11.307 8 15.127 8c3.071 0 5.092 2.22 5.092 4.607 0 3.154-1.755 5.51-4.34 5.51M14.8 1C7.068 1 .8 7.268.8 15s6.268 14 14 14 14-6.268 14-14-6.268-14-14-14"/>
  </symbol>

  <symbol id="mail-icon" width="30" height="30" viewBox="0 0 30 30">
    <g fill="none" fill-rule="evenodd" transform="translate(1 1)">
      <rect width="28" height="28" fill="#444" fill-opacity=".2" rx="14"/>
      <path fill="#FFF" fill-rule="nonzero"
            d="M19.749 8.615H8.251c-.987 0-1.79.771-1.79 1.719v8.014c0 .948.803 1.719 1.79 1.719h11.498c.987 0 1.79-.771 1.79-1.719v-8.014c0-.948-.803-1.719-1.79-1.719zm0 9.934H8.251c-.145 0-.272-.094-.272-.2v-6.955l5.2 4.39c.107.09.242.14.382.14h.878c.14 0 .275-.05.382-.14l5.2-4.39v6.954c0 .107-.127.201-.272.201zM14 14.417l-5.058-4.284h10.116L14 14.417z"/>
    </g>
  </symbol>

  <symbol id="cart-icon" width="35" height="35" viewBox="0 0 35 35">
    <g fill="#000" fill-rule="nonzero">
      <path d="M13.663 25.442c-1.684.011-3.04 1.452-3.033 3.22.007 1.767 1.376 3.195 3.06 3.191 1.683-.004 3.046-1.438 3.046-3.206 0-.853-.324-1.672-.901-2.274a2.98 2.98 0 0 0-2.172-.931zm0 4.274c-.563 0-1.018-.478-1.018-1.069 0-.59.455-1.068 1.018-1.068.562 0 1.017.478 1.017 1.068 0 .59-.455 1.07-1.017 1.07zM21.805 25.442c-1.684.011-3.04 1.452-3.033 3.22.007 1.767 1.376 3.195 3.06 3.191 1.683-.004 3.046-1.438 3.046-3.206 0-.853-.324-1.672-.901-2.274a2.98 2.98 0 0 0-2.172-.931zm0 4.274c-.562 0-1.018-.478-1.018-1.069 0-.59.456-1.068 1.018-1.068s1.017.478 1.017 1.068c0 .59-.455 1.07-1.017 1.07zM7.882 7.275l-.57-3.206H3.383v2.137h2.24l3.195 18.039 17.188.184v-2.322H10.508l-.347-2.009 17.205.045h1.36l2.38-12.868H7.883zM27.28 17.96H9.775L8.35 9.411h20.355l-1.425 8.55z"/>
    </g>
  </symbol>

  <symbol id="eye-icon" width="44" height="44" viewBox="0 0 44 44">
    <g fill="none" fill-rule="evenodd">
      <rect width="44" height="44" fill="#F9F9F9" rx="22"/>
      <g fill="#000" fill-rule="nonzero">
        <path d="M27.487 18.428a7.765 7.765 0 0 0-10.974 0L12.94 22l3.572 3.572a7.765 7.765 0 0 0 10.974 0L31.06 22l-3.572-3.572zm-.906 6.225a6.47 6.47 0 0 1-9.162 0L14.766 22l2.653-2.588a6.47 6.47 0 0 1 9.162 0L29.234 22l-2.653 2.653z"/>
        <path d="M22 19.412a2.588 2.588 0 1 0 0 5.176 2.588 2.588 0 0 0 0-5.176zm0 3.882a1.294 1.294 0 1 1 0-2.588 1.294 1.294 0 0 1 0 2.588z"/>
      </g>
    </g>
  </symbol>

  <symbol id="right-arrow" width="40" height="20" viewBox="0 0 40 20">
      <path fill="#000" fill-rule="nonzero" d="M28.421 16.27l4.885-5.029H1V8.157h32.246L28.421 3.19 30.52 1 39 9.73l-8.481 8.73z" opacity=".8"/>
  </symbol>
</svg>