<?xml version="1.0" encoding="UTF-8"?>
<svg width="481px" height="117px" viewBox="0 0 481 117" version="1.1" xmlns="http://www.w3.org/2000/svg" xmlns:xlink="http://www.w3.org/1999/xlink">
    <title>lazlo_logotipo</title>
    <desc>Created with Sketch.</desc>
    <defs></defs>
    <g id="Symbols" stroke="none" stroke-width="1" fill="none" fill-rule="evenodd">
        <g id="lazlo_logotipo" fill="#010203">
            <path d="M64,97.5660377 L64,112 L5,112 L5,10 L21.0657277,10 L21.0657277,97.5660377 L64,97.5660377 Z M141.27907,112 L132.488372,90.0760309 L95.6511628,90.0760309 L86.8604651,112 L69,112 L114.069767,5 L159,112 L141.27907,112 Z M101,76 L126,76 L113.5,45 L101,76 Z M249.605442,112 L169,112 L222.132653,25.9460916 L180.57483,25.9460916 L180.57483,10 L251,10 L197.867347,96.0539084 L249.605442,96.0539084 L249.605442,112 Z M330,97.5660377 L330,112 L271,112 L271,10 L287.065728,10 L287.065728,97.5660377 L330,97.5660377 Z M389.5,112 C382.559299,112 375.757412,110.625337 369.510782,108.013477 C363.264151,105.401617 357.850404,101.690027 353.130728,97.0161725 C348.411051,92.3423181 344.663073,86.9811321 342.025606,80.7951482 C339.38814,74.6091644 338,67.8733154 338,61 C338,54.1266846 339.38814,47.3908356 342.025606,41.0673854 C344.663073,35.0188679 348.411051,29.6576819 353.130728,24.8463612 C357.850404,20.1725067 363.264151,16.5983827 369.510782,13.9865229 C375.757412,11.3746631 382.559299,10 389.5,10 C396.440701,10 403.242588,11.3746631 409.628032,13.9865229 C415.735849,16.5983827 421.149596,20.1725067 426.008086,24.8463612 C430.727763,29.6576819 434.336927,35.0188679 436.974394,41.0673854 C439.61186,47.3908356 441,54.1266846 441,61 C441,67.8733154 439.61186,74.6091644 436.974394,80.7951482 C434.336927,86.9811321 430.727763,92.3423181 426.008086,97.0161725 C421.149596,101.690027 415.735849,105.401617 409.628032,108.013477 C403.242588,110.625337 396.440701,112 389.5,112 Z M390.5,26 C381.033333,26 372.123529,29.7058824 365.441176,36.2941176 C358.758824,42.8823529 355,51.6666667 355,61 C355,70.3333333 358.758824,79.1176471 365.441176,85.7058824 C372.123529,92.2941176 381.033333,96 390.5,96 C399.966667,96 408.876471,92.2941176 415.558824,85.7058824 C422.241176,79.1176471 426,70.3333333 426,61 C426,51.6666667 422.241176,42.8823529 415.558824,36.2941176 C408.876471,29.7058824 399.966667,26 390.5,26 Z M476,102.5 C476,107.792857 471.657143,112 466.5,112 C461.207143,112 457,107.792857 457,102.5 C457,97.3428571 461.207143,93 466.5,93 C471.657143,93 476,97.3428571 476,102.5 Z" id="LAZLO."></path>
        </g>
    </g>
</svg>