<?xml version="1.0" encoding="UTF-8"?>
<svg width="1000px" height="1000px"
     x="0px" y="0px" viewBox="0 0 1000 1000" enable-background="new 0 0 1000 1000" xml:space="preserve"
     version="1.1" xmlns="http://www.w3.org/2000/svg" xmlns:xlink="http://www.w3.org/1999/xlink">
  <g transform="translate(0.000000,511.000000) scale(0.100000,-0.100000)">
    <path d="M9579.1,4972c-31.1-19.4-262.6-243.1-513.5-494l-455.1-457.1l-79.8,27.2C8439.3,4077.3,5510,4369,5290.2,4369c-184.8,1.9-305.4-27.2-476.5-114.8c-126.4-64.2-287.9-219.8-2301-2229C1322.3,836.8,316.7-180.5,279.7-234.9C122.2-460.6,61.9-781.5,124.1-1048c72-303.4,15.6-241.2,1768.1-1987.9c1546.3-1542.5,1602.7-1596.9,1735-1657.2c301.5-134.2,603-128.4,904.5,17.5l165.3,79.8l2190.1,2192.1C9248.4-40.4,9155-141.6,9229,136.6c15.6,64.2,29.2,178.9,29.2,256.7c0,210.1-285.9,3110.1-319,3234.6l-29.2,107l496,496c472.7,476.5,494.1,501.8,494.1,571.8c0,58.4-13.6,87.5-66.1,140C9756.1,5020.6,9670.5,5030.3,9579.1,4972z M6787.9,3818.6c797.5-75.9,1453-142,1458.8-145.9c3.9-3.9-97.2-112.8-225.6-241.2l-235.4-235.4l-142,44.7c-110.9,33.1-167.3,38.9-266.5,31.1c-254.8-25.3-494-194.5-603-429.9c-44.7-101.1-54.5-143.9-54.5-293.7c0-159.5,5.8-186.7,64.2-305.4c130.3-264.5,363.7-410.4,655.5-410.4c200.3,0,342.3,52.5,482.4,180.9c223.7,204.2,297.6,513.5,188.7,799.4l-33.1,91.4l239.2,239.2l237.3,237.3l11.7-66.1c35-208.1,285.9-2919.5,276.2-2989.6c-29.2-212,46.7-130.3-2273.8-2448.8C4467.5-4220.4,4381.9-4304,4278.8-4339c-157.6-50.6-319-42.8-461,19.5c-105,48.6-260.6,196.4-1672.8,1612.5l-1558,1559.9l-42.8,142c-33.1,107-40.8,167.3-31.1,243.1c31.1,243.1-64.2,140,2225.1,2431.3c1163.1,1165.1,2153.2,2143.5,2199.9,2176.5c99.2,70,214,108.9,322.9,112.8C5303.8,3958.6,5990.4,3896.4,6787.9,3818.6z M7595.1,2813c93.4-52.5,145.9-147.8,145.9-262.6c0-182.8-120.6-303.4-301.5-303.4c-354,0-429.9,476.5-95.3,593.2C7429.8,2869.4,7509.5,2859.6,7595.1,2813z"/><path d="M5414.7,2717.7c-58.4-44.7-85.6-105-85.6-182.8c0-56.4,38.9-101.1,355.9-418.2c346.2-346.2,357.9-355.9,435.7-355.9c153.7,0,252.9,140,194.5,274.3c-15.6,37-177,212-357.9,392.9c-326.8,322.9-330.7,324.8-416.2,324.8C5490.5,2752.7,5440,2739,5414.7,2717.7z"/><path d="M4716.4,2599c-31.1-19.5-200.3-180.9-373.5-356c-307.3-311.2-317-322.9-317-400.7c0-62.2,13.6-95.3,56.4-143.9c48.6-54.5,70-64.2,145.9-64.2h89.5l350.1,352.1c350.1,350.1,350.1,350.1,350.1,437.6C5017.9,2591.2,4854.5,2686.5,4716.4,2599z"/><path d="M6640.1,1558.4c-83.7-37-124.5-101.1-124.5-194.5c0-75.9,13.6-91.4,355.9-433.8c315.1-317,361.8-355.9,418.2-355.9c77.8,0,171.2,44.7,198.4,95.3c9.7,21.4,19.5,75.9,19.5,120.6c0,81.7-7.8,89.5-324.8,412.3c-284,285.9-404.6,385.1-466.8,383.2C6708.2,1583.7,6673.1,1572,6640.1,1558.4z"/><path d="M3559.1,1435.9c-44.7-15.6-659.4-630.2-692.4-690.5c-35-68.1-35-120.6,3.9-192.6c40.8-79.8,145.9-124.5,227.6-97.3c73.9,25.3,721.6,669.1,743,737.2c17.5,62.2-23.3,171.2-81.7,217.9C3712.8,1447.5,3623.3,1459.2,3559.1,1435.9z"/><path d="M4144.6,1068.2c-46.7-38.9-60.3-66.1-60.3-118.7c0-75.9,764.4-2557.7,809.1-2627.8c35-54.5,116.7-87.5,178.9-72c73.9,19.5,140,97.3,140,169.2c0,35-177,634.1-392.9,1328.4c-326.8,1052.3-402.6,1274-445.4,1318.8C4306,1134.4,4224.3,1136.3,4144.6,1068.2z"/><path d="M5508.1,325.2c-194.5-70-410.4-303.4-449.3-492.1c-54.5-254.8,155.6-581.6,466.8-727.5c214-99.2,443.5-35,636,175c122.5,134.2,165.3,223.7,175.1,373.5c11.7,159.5-50.6,295.6-212,464.9C5922.4,329.1,5714.2,397.2,5508.1,325.2z M5823.2-77.4c105-79.7,175.1-208.1,161.4-295.6c-15.6-87.5-116.7-196.4-196.4-212c-79.8-13.6-147.8,13.6-245.1,101.2c-99.2,89.5-136.2,159.5-136.2,252.9c0,56.4,15.6,85.6,77.8,147.8c73.9,73.9,83.6,77.8,173.1,70C5720.1-19.1,5774.5-40.4,5823.2-77.4z"/><path d="M3368.5,272.7c-128.4-60.3-303.4-233.4-359.8-354c-56.4-126.4-56.4-295.7,1.9-420.1c58.4-132.3,256.8-332.6,398.7-402.6c91.4-46.7,142-58.3,235.4-58.3c153.7,2,254.8,48.6,396.8,182.8c155.6,149.8,208.1,256.7,208.1,429.9c-1.9,173.1-66.1,303.4-223.7,459C3808.1,321.3,3590.2,375.8,3368.5,272.7z M3668-59.9c89.5-42.8,194.5-165.3,223.7-256.7c17.5-64.2,17.5-87.5-11.7-145.9c-40.8-87.5-136.2-149.8-227.6-149.8c-134.2,0-334.5,204.2-334.5,340.4c0,77.8,48.6,155.6,130.3,204.2C3524.1-21,3580.5-19.1,3668-59.9z"/><path d="M2036.1-61.8c-180.9-180.9-340.4-352.1-357.9-383.2c-66.1-128.4,38.9-284,194.5-284c77.8,0,89.5,9.7,426,344.3C2678-7.4,2703.3,33.5,2635.2,156c-38.9,73.9-101.1,107-198.4,107C2370.7,263,2341.5,237.7,2036.1-61.8z"/><path d="M7301.4,206.6c-40.8-29.2-204.2-186.7-361.8-348.1c-287.9-291.8-287.9-293.7-287.9-383.2c0-73.9,9.7-101.1,56.4-147.8c46.7-46.7,73.9-56.4,149.8-56.4h93.4l346.2,346.2l346.2,346.2v93.3C7643.7,247.4,7462.9,327.2,7301.4,206.6z"/><path d="M5869.8-1209.4c-330.7-326.8-404.6-416.3-404.6-496c0-163.4,161.4-258.7,307.3-182.8c85.6,44.7,676.9,657.4,688.6,711.9c25.3,140.1-68.1,252.9-212,252.9C6161.6-923.5,6157.7-927.4,5869.8-1209.4z"/><path d="M1866.9-1092.7c-44.7-38.9-64.2-77.8-72-138.1l-11.7-83.7l355.9-355.9c387.1-391,418.2-410.4,542.7-346.2c81.7,42.8,130.3,147.8,108.9,231.5c-13.6,60.3-606.9,671-694.4,717.7C2014.7-1024.6,1933-1034.4,1866.9-1092.7z"/><path d="M4986.8-2121.7c-79.7-38.9-678.8-645.8-698.3-704.1c-37-122.5,66.1-276.2,186.7-276.2c97.3,0,149.8,42.8,476.5,373.5c342.3,344.3,363.7,381.2,311.2,509.6c-21.4,50.6-50.6,79.7-97.3,99.2C5080.1-2082.8,5062.6-2084.7,4986.8-2121.7z"/><path d="M3067-2248.1c-46.7-27.2-91.4-120.6-91.4-196.4c0-56.4,38.9-103.1,355.9-418.2c342.3-342.3,357.9-356,433.8-356c93.4,0,159.5,42.8,194.5,126.4c48.6,118.6,17.5,167.3-348.2,531c-336.5,332.6-336.5,334.5-424,334.5C3140.9-2226.7,3086.5-2236.4,3067-2248.1z"/></g>
</svg>