<?xml version="1.0" encoding="UTF-8"?>
<svg width="40px" height="40px" viewBox="0 0 30 30"
     version="1.1" xmlns="http://www.w3.org/2000/svg" xmlns:xlink="http://www.w3.org/1999/xlink">
  <g>
    <g id="svg_1" fill-rule="evenodd" fill="none">
      <rect id="svg_2" x="1" y="1" rx="14" fill="#fed604" height="28" width="28"/>
      <path id="svg_3"
            d="m20.749,9.615l-11.498,0c-0.987,0 -1.79,0.771 -1.79,1.719l0,8.014c0,0.948 0.803,1.719 1.79,1.719l11.498,0c0.987,0 1.79,-0.771 1.79,-1.719l0,-8.014c0,-0.948 -0.803,-1.719 -1.79,-1.719zm0,9.934l-11.498,0c-0.145,0 -0.272,-0.094 -0.272,-0.2l0,-6.955l5.2,4.39c0.107,0.09 0.242,0.14 0.382,0.14l0.878,0c0.14,0 0.275,-0.05 0.382,-0.14l5.2,-4.39l0,6.954c0,0.107 -0.127,0.201 -0.272,0.201zm-5.749,-4.132l-5.058,-4.284l10.116,0l-5.058,4.284z"
            fill-rule="nonzero" fill="#FFF"/>
    </g>
  </g>

</svg>