<?xml version="1.0" encoding="UTF-8"?>
<svg width="44px" height="44px" viewBox="0 0 44 44"
     version="1.1" xmlns="http://www.w3.org/2000/svg" xmlns:xlink="http://www.w3.org/1999/xlink">
  <g fill="none" fill-rule="evenodd">
    <rect width="44" height="44" fill="#F9F9F9" rx="22"/>
    <g fill="#000" fill-rule="nonzero">
      <path d="M27.487 18.428a7.765 7.765 0 0 0-10.974 0L12.94 22l3.572 3.572a7.765 7.765 0 0 0 10.974 0L31.06 22l-3.572-3.572zm-.906 6.225a6.47 6.47 0 0 1-9.162 0L14.766 22l2.653-2.588a6.47 6.47 0 0 1 9.162 0L29.234 22l-2.653 2.653z"/>
      <path d="M22 19.412a2.588 2.588 0 1 0 0 5.176 2.588 2.588 0 0 0 0-5.176zm0 3.882a1.294 1.294 0 1 1 0-2.588 1.294 1.294 0 0 1 0 2.588z"/>
    </g>
  </g>
</svg>