<?xml version="1.0" encoding="UTF-8"?>
<svg width="40px" height="40px" viewBox="0 0 30 30"
     version="1.1" xmlns="http://www.w3.org/2000/svg" xmlns:xlink="http://www.w3.org/1999/xlink">
  <g fill="#FED604" fill-rule="evenodd">
    <path d="M14.738 17.702a2.69 2.69 0 0 0 2.692-2.686 2.69 2.69 0 0 0-2.692-2.685 2.69 2.69 0 0 0-2.693 2.685 2.69 2.69 0 0 0 2.693 2.686M17.838 12.265h1.893a.392.392 0 0 0 .392-.39v-1.89a.392.392 0 0 0-.392-.39h-1.893a.392.392 0 0 0-.392.39v1.89c0 .215.176.39.392.39"/>
    <path d="M22 20.34c0 .916-.745 1.66-1.664 1.66H9.664A1.663 1.663 0 0 1 8 20.34V9.66C8 8.743 8.745 8 9.664 8h10.672C21.256 8 22 8.743 22 9.66v10.68zM15 1C7.268 1 1 7.268 1 15s6.268 14 14 14 14-6.268 14-14S22.732 1 15 1z"/>
    <path d="M18.997 15.016a4.259 4.259 0 0 1-8.518 0c0-.388.053-.765.152-1.123H9.32v6.088c0 .216.175.391.39.391h10.052a.391.391 0 0 0 .392-.391v-6.088h-1.31c.1.358.152.735.152 1.123"/>
  </g>
</svg>