<?xml version="1.0" encoding="UTF-8"?>
<svg width="40px" height="38px" viewBox="0 0 40 38" version="1.1" xmlns="http://www.w3.org/2000/svg" xmlns:xlink="http://www.w3.org/1999/xlink">
    <!-- Generator: Sketch 48.2 (47327) - http://www.bohemiancoding.com/sketch -->
    <title>icon/social_media/instagram/active copy</title>
    <desc>Created with Sketch.</desc>
    <defs></defs>
    <g id="Symbols" stroke="none" stroke-width="1" fill="none" fill-rule="evenodd">
        <g id="icon/social_media/instagram/active-copy" fill="#010203">
            <g id="header/social_media/instagram" transform="translate(6.000000, 5.000000)">
                <path d="M14.0163625,16.702175 C15.5029875,16.702175 16.7087375,15.499925 16.7087375,14.015925 C16.7087375,12.5328 15.5029875,11.33055 14.0163625,11.33055 C12.5297375,11.33055 11.3239875,12.5328 11.3239875,14.015925 C11.3239875,15.499925 12.5297375,16.702175 14.0163625,16.702175" id="Fill-202"></path>
                <path d="M17.116575,11.2651 L19.0092,11.2651 C19.225325,11.2651 19.4012,11.0901 19.4012,10.87485 L19.4012,8.985725 C19.4012,8.770475 19.225325,8.595475 19.0092,8.595475 L17.116575,8.595475 C16.90045,8.595475 16.724575,8.770475 16.724575,8.985725 L16.724575,10.87485 C16.724575,11.0901 16.90045,11.2651 17.116575,11.2651" id="Fill-203"></path>
                <path d="M21,19.3396 C21,20.2566 20.255375,21.00035 19.33575,21.00035 L8.66425,21.00035 C7.7455,21.00035 7,20.2566 7,19.3396 L7,8.660225 C7,7.743225 7.7455,7.00035 8.66425,7.00035 L19.33575,7.00035 C20.255375,7.00035 21,7.743225 21,8.660225 L21,19.3396 Z M14,0.00035 C6.267625,0.00035 0,6.267975 0,14.00035 C0,21.73185 6.267625,28.00035 14,28.00035 C21.732375,28.00035 28,21.73185 28,14.00035 C28,6.267975 21.732375,0.00035 14,0.00035 L14,0.00035 Z" id="Fill-204"></path>
                <path d="M18.275075,14.016275 C18.275075,16.35865 16.36495,18.265275 14.01645,18.265275 C11.66795,18.265275 9.757825,16.35865 9.757825,14.016275 C9.757825,13.627775 9.810325,13.25065 9.9092,12.892775 L8.599325,12.892775 L8.599325,18.981025 C8.599325,19.19715 8.774325,19.37215 8.99045,19.37215 L19.041575,19.37215 C19.258575,19.37215 19.433575,19.19715 19.433575,18.981025 L19.433575,12.892775 L18.1237,12.892775 C18.222575,13.25065 18.275075,13.627775 18.275075,14.016275" id="Fill-205"></path>
            </g>
        </g>
    </g>
</svg>