<?xml version="1.0" encoding="UTF-8"?>
<svg width="40px" height="38px" viewBox="0 0 40 38" version="1.1" xmlns="http://www.w3.org/2000/svg" xmlns:xlink="http://www.w3.org/1999/xlink">
    <!-- Generator: Sketch 48.2 (47327) - http://www.bohemiancoding.com/sketch -->
    <title>icon/social_media/facebook/active copy 3</title>
    <desc>Created with Sketch.</desc>
    <defs></defs>
    <g id="Symbols" stroke="none" stroke-width="1" fill="none" fill-rule="evenodd">
        <g id="icon/social_media/facebook/active-copy-3" fill="#010203">
            <g id="header/social_media/facebook" transform="translate(5.000000, 5.000000)">
                <path d="M18.6396294,9.324 L17.3126643,9.324875 C16.2720629,9.324875 16.0702867,9.81575 16.0702867,10.535875 L16.0702867,12.124875 L18.5523986,12.124875 L18.229028,14.61425 L16.0702867,14.61425 L16.0702867,21 L13.4824406,21 L13.4824406,14.61425 L11.3184126,14.61425 L11.3184126,12.124875 L13.4824406,12.124875 L13.4824406,10.29 C13.4824406,8.159375 14.7926643,7 16.7055734,7 C17.6219371,7 18.4096573,7.067375 18.6396294,7.098 L18.6396294,9.324 Z M14.9785804,0 C7.19301399,0 0.880678322,6.267625 0.880678322,14 C0.880678322,21.7315 7.19301399,28 14.9785804,28 C22.765028,28 29.0764825,21.7315 29.0764825,14 C29.0764825,6.267625 22.765028,0 14.9785804,0 L14.9785804,0 Z" id="Fill-183"></path>
            </g>
        </g>
    </g>
</svg>