<?xml version="1.0" encoding="UTF-8"?>
<svg width="40px" height="38px" viewBox="0 0 40 38" version="1.1" xmlns="http://www.w3.org/2000/svg" xmlns:xlink="http://www.w3.org/1999/xlink">
    <!-- Generator: Sketch 48.2 (47327) - http://www.bohemiancoding.com/sketch -->
    <title>icon/social_media/pinterest/active copy</title>
    <desc>Created with Sketch.</desc>
    <defs></defs>
    <g id="Symbols" stroke="none" stroke-width="1" fill="none" fill-rule="evenodd">
        <g id="icon/social_media/pinterest/active-copy" fill="#010203">
            <g id="header/social_media/pinterest" transform="translate(6.000000, 5.000000)">
                <path d="M15.0801875,17.1178875 C14.2121875,17.1178875 13.3949375,16.6488875 13.1158125,16.1151375 C13.1158125,16.1151375 12.6485625,17.9683875 12.5505625,18.3262625 C12.2023125,19.5897625 11.1776875,20.8541375 11.0980625,20.9573875 C11.0429375,21.0300125 10.9204375,21.0072625 10.9073125,20.9118875 C10.8854375,20.7508875 10.6238125,19.1557625 10.9318125,17.8555125 C11.0858125,17.2027625 11.9660625,13.4735125 11.9660625,13.4735125 C11.9660625,13.4735125 11.7096875,12.9598875 11.7096875,12.2012625 C11.7096875,11.0095125 12.4000625,10.1196375 13.2601875,10.1196375 C13.9916875,10.1196375 14.3443125,10.6691375 14.3443125,11.3271375 C14.3443125,12.0621375 13.8761875,13.1620125 13.6346875,14.1805125 C13.4325625,15.0336375 14.0625625,15.7292625 14.9043125,15.7292625 C16.4268125,15.7292625 17.4531875,13.7727625 17.4531875,11.4540125 C17.4531875,9.6917625 16.2666875,8.3722625 14.1071875,8.3722625 C11.6685625,8.3722625 10.1478125,10.1913875 10.1478125,12.2240125 C10.1478125,12.9240125 10.3551875,13.4183875 10.6789375,13.8007625 C10.8276875,13.9766375 10.8486875,14.0475125 10.7944375,14.2487625 C10.7550625,14.3975125 10.6675625,14.7527625 10.6299375,14.8945125 C10.5765625,15.0983875 10.4120625,15.1710125 10.2274375,15.0957625 C9.1048125,14.6372625 8.5806875,13.4061375 8.5806875,12.0236375 C8.5806875,9.7390125 10.5074375,7.0002625 14.3276875,7.0002625 C17.3989375,7.0002625 19.4193125,9.2210125 19.4193125,11.6071375 C19.4193125,14.7615125 17.6649375,17.1178875 15.0801875,17.1178875 M14.0004375,0.0002625 C6.2680625,0.0002625 0.0004375,6.2678875 0.0004375,14.0002625 C0.0004375,21.7317625 6.2680625,28.0002625 14.0004375,28.0002625 C21.7319375,28.0002625 28.0004375,21.7317625 28.0004375,14.0002625 C28.0004375,6.2678875 21.7319375,0.0002625 14.0004375,0.0002625" id="Fill-222"></path>
            </g>
        </g>
    </g>
</svg>